<svg width="73" height="73" viewBox="0 0 73 73" fill="none" xmlns="http://www.w3.org/2000/svg">
<circle cx="36.5" cy="36.5" r="36.5" fill="#B8DDF2"/>
<path d="M18.7298 50C24.069 50 26.8581 47.1048 26.8581 41.2351V22H13.7493V24.5382H23.9495V41.3541C23.9495 45.4391 22.1963 47.4618 18.7697 47.4618C16.2993 47.4618 14.2672 46.272 12.7532 44.051L11 46.034C12.7133 48.5722 15.5821 50 18.7298 50Z" fill="#1F467C"/>
<path d="M35.7026 49.762H47.0583C55.9835 49.762 62 44.051 62 35.881C62 27.711 55.9835 22 47.0583 22H35.7026V49.762ZM38.6511 47.2238V24.5382H46.8989C54.31 24.5382 59.0914 29.2181 59.0914 35.881C59.0914 42.5439 54.31 47.2238 46.8989 47.2238H38.6511Z" fill="#1F467C"/>
</svg>
